<svg width="16" height="16" viewBox="0 0 16 16" fill="none" xmlns="http://www.w3.org/2000/svg">
<path d="M5.87336 1.33325L3.46002 3.75325" stroke="currentColor" stroke-miterlimit="10" stroke-linecap="round" stroke-linejoin="round"/>
<path d="M10.1266 1.33325L12.54 3.75325" stroke="currentColor" stroke-miterlimit="10" stroke-linecap="round" stroke-linejoin="round"/>
<path d="M1.33331 5.23324C1.33331 3.9999 1.99331 3.8999 2.81331 3.8999H13.1866C14.0066 3.8999 14.6666 3.9999 14.6666 5.23324C14.6666 6.66657 14.0066 6.56657 13.1866 6.56657H2.81331C1.99331 6.56657 1.33331 6.66657 1.33331 5.23324Z" stroke="currentColor"/>
<path d="M6.50665 9.33325V11.6999" stroke="currentColor" stroke-linecap="round"/>
<path d="M9.5733 9.33325V11.6999" stroke="currentColor" stroke-linecap="round"/>
<path d="M2.33331 6.66675L3.27331 12.4267C3.48665 13.7201 3.99998 14.6667 5.90665 14.6667H9.92665C12 14.6667 12.3066 13.7601 12.5466 12.5067L13.6666 6.66675" stroke="currentColor" stroke-linecap="round"/>
</svg>
